<?xml version="1.0" encoding="UTF-8"?><svg xmlns="http://www.w3.org/2000/svg" xmlns:xlink="http://www.w3.org/1999/xlink" fill-opacity="1" color-rendering="auto" color-interpolation="auto" text-rendering="auto" stroke="black" stroke-linecap="square" width="810" stroke-miterlimit="10" shape-rendering="auto" stroke-opacity="1" fill="black" stroke-dasharray="none" font-weight="normal" stroke-width="1" height="595" font-family="'Dialog'" font-style="normal" stroke-linejoin="miter" font-size="12px" stroke-dashoffset="0" image-rendering="auto">
  <!--Generated by ySVG 2.5-->
  <defs id="genericDefs"/>
  <g>
    <defs id="defs1">
      <clipPath clipPathUnits="userSpaceOnUse" id="clipPath1">
        <path d="M0 0 L810 0 L810 595 L0 595 L0 0 Z"/>
      </clipPath>
      <clipPath clipPathUnits="userSpaceOnUse" id="clipPath2">
        <path d="M-15 -15 L795 -15 L795 580 L-15 580 L-15 -15 Z"/>
      </clipPath>
    </defs>
    <g fill="rgb(49,54,63)" text-rendering="geometricPrecision" shape-rendering="geometricPrecision" transform="translate(15,15)" stroke="rgb(49,54,63)">
      <rect x="-15" width="810" height="595" y="-15" clip-path="url(#clipPath2)" stroke="none"/>
    </g>
    <g fill="rgb(89,94,103)" text-rendering="geometricPrecision" shape-rendering="geometricPrecision" transform="matrix(1,0,0,1,15,15)" stroke="rgb(89,94,103)">
      <ellipse rx="97.8701" ry="14.3506" clip-path="url(#clipPath2)" cx="97.8701" cy="184.8047" stroke="none"/>
    </g>
    <g stroke-linecap="butt" transform="matrix(1,0,0,1,15,15)" fill="rgb(36,41,46)" text-rendering="geometricPrecision" shape-rendering="geometricPrecision" stroke="rgb(36,41,46)" stroke-miterlimit="1.45">
      <ellipse rx="97.8701" fill="none" ry="14.3506" clip-path="url(#clipPath2)" cx="97.8701" cy="184.8047"/>
      <text x="22" y="189.5186" clip-path="url(#clipPath2)" fill="rgb(157,165,180)" font-family="sans-serif" stroke="none" xml:space="preserve">Список натуральных чисел</text>
    </g>
    <g stroke-linecap="butt" transform="matrix(1,0,0,1,15,15)" fill-opacity="0" fill="rgb(255,255,255)" text-rendering="geometricPrecision" font-family="sans-serif" shape-rendering="geometricPrecision" stroke="rgb(255,255,255)" stroke-opacity="0" stroke-miterlimit="1.45">
      <text x="36.8389" xml:space="preserve" y="189.5186" clip-path="url(#clipPath2)" stroke="none">List of natural numbers</text>
    </g>
    <g fill="rgb(89,94,103)" text-rendering="geometricPrecision" shape-rendering="geometricPrecision" transform="matrix(1,0,0,1,15,15)" stroke="rgb(89,94,103)">
      <ellipse rx="43.2607" ry="14.3506" clip-path="url(#clipPath2)" cx="435.9854" cy="63.0518" stroke="none"/>
    </g>
    <g stroke-linecap="butt" transform="matrix(1,0,0,1,15,15)" fill="rgb(36,41,46)" text-rendering="geometricPrecision" shape-rendering="geometricPrecision" stroke="rgb(36,41,46)" stroke-miterlimit="1.45">
      <ellipse rx="43.2607" fill="none" ry="14.3506" clip-path="url(#clipPath2)" cx="435.9854" cy="63.0518"/>
      <text x="414.7246" y="67.7656" clip-path="url(#clipPath2)" fill="rgb(157,165,180)" font-family="sans-serif" stroke="none" xml:space="preserve">Пробел</text>
    </g>
    <g stroke-linecap="butt" transform="matrix(1,0,0,1,15,15)" fill-opacity="0" fill="rgb(255,255,255)" text-rendering="geometricPrecision" font-family="sans-serif" shape-rendering="geometricPrecision" stroke="rgb(255,255,255)" stroke-opacity="0" stroke-miterlimit="1.45">
      <text x="418.9727" xml:space="preserve" y="67.7656" clip-path="url(#clipPath2)" stroke="none">Space</text>
    </g>
    <g fill="rgb(89,94,103)" text-rendering="geometricPrecision" shape-rendering="geometricPrecision" transform="matrix(1,0,0,1,15,15)" stroke="rgb(89,94,103)">
      <ellipse rx="38.0898" ry="14.3506" clip-path="url(#clipPath2)" cx="430.8145" cy="111.7529" stroke="none"/>
    </g>
    <g stroke-linecap="butt" transform="matrix(1,0,0,1,15,15)" fill="rgb(36,41,46)" text-rendering="geometricPrecision" shape-rendering="geometricPrecision" stroke="rgb(36,41,46)" stroke-miterlimit="1.45">
      <ellipse rx="38.0898" fill="none" ry="14.3506" clip-path="url(#clipPath2)" cx="430.8145" cy="111.7529"/>
      <text x="414.7246" y="116.4668" clip-path="url(#clipPath2)" fill="rgb(157,165,180)" font-family="sans-serif" stroke="none" xml:space="preserve">Точка</text>
    </g>
    <g stroke-linecap="butt" transform="matrix(1,0,0,1,15,15)" fill-opacity="0" fill="rgb(255,255,255)" text-rendering="geometricPrecision" font-family="sans-serif" shape-rendering="geometricPrecision" stroke="rgb(255,255,255)" stroke-opacity="0" stroke-miterlimit="1.45">
      <text x="417.1387" xml:space="preserve" y="116.4668" clip-path="url(#clipPath2)" stroke="none">Point</text>
    </g>
    <g fill="rgb(89,94,103)" text-rendering="geometricPrecision" shape-rendering="geometricPrecision" transform="matrix(1,0,0,1,15,15)" stroke="rgb(89,94,103)">
      <ellipse rx="66.4463" ry="14.3506" clip-path="url(#clipPath2)" cx="459.1709" cy="160.4541" stroke="none"/>
    </g>
    <g stroke-linecap="butt" transform="matrix(1,0,0,1,15,15)" fill="rgb(36,41,46)" text-rendering="geometricPrecision" shape-rendering="geometricPrecision" stroke="rgb(36,41,46)" stroke-miterlimit="1.45">
      <ellipse rx="66.4463" fill="none" ry="14.3506" clip-path="url(#clipPath2)" cx="459.1709" cy="160.4541"/>
      <text x="414.7246" y="165.168" clip-path="url(#clipPath2)" fill="rgb(157,165,180)" font-family="sans-serif" stroke="none" xml:space="preserve">Точка с запятой</text>
    </g>
    <g stroke-linecap="butt" transform="matrix(1,0,0,1,15,15)" fill-opacity="0" fill="rgb(255,255,255)" text-rendering="geometricPrecision" font-family="sans-serif" shape-rendering="geometricPrecision" stroke="rgb(255,255,255)" stroke-opacity="0" stroke-miterlimit="1.45">
      <text x="431.1572" xml:space="preserve" y="165.168" clip-path="url(#clipPath2)" stroke="none">Semicolon</text>
    </g>
    <g fill="rgb(89,94,103)" text-rendering="geometricPrecision" shape-rendering="geometricPrecision" transform="matrix(1,0,0,1,15,15)" stroke="rgb(89,94,103)">
      <ellipse rx="65.9775" ry="14.3506" clip-path="url(#clipPath2)" cx="458.7021" cy="209.1553" stroke="none"/>
    </g>
    <g stroke-linecap="butt" transform="matrix(1,0,0,1,15,15)" fill="rgb(36,41,46)" text-rendering="geometricPrecision" shape-rendering="geometricPrecision" stroke="rgb(36,41,46)" stroke-miterlimit="1.45">
      <ellipse rx="65.9775" fill="none" ry="14.3506" clip-path="url(#clipPath2)" cx="458.7021" cy="209.1553"/>
      <text x="414.7246" y="213.8691" clip-path="url(#clipPath2)" fill="rgb(157,165,180)" font-family="sans-serif" stroke="none" xml:space="preserve">Знак табуляции</text>
    </g>
    <g stroke-linecap="butt" transform="matrix(1,0,0,1,15,15)" fill-opacity="0" fill="rgb(255,255,255)" text-rendering="geometricPrecision" font-family="sans-serif" shape-rendering="geometricPrecision" stroke="rgb(255,255,255)" stroke-opacity="0" stroke-miterlimit="1.45">
      <text x="421.6855" xml:space="preserve" y="213.8691" clip-path="url(#clipPath2)" stroke="none">Tab character</text>
    </g>
    <g fill="rgb(89,94,103)" text-rendering="geometricPrecision" shape-rendering="geometricPrecision" transform="matrix(1,0,0,1,15,15)" stroke="rgb(89,94,103)">
      <ellipse rx="76.6885" ry="14.3506" clip-path="url(#clipPath2)" cx="312.4287" cy="14.3506" stroke="none"/>
    </g>
    <g stroke-linecap="butt" transform="matrix(1,0,0,1,15,15)" fill="rgb(36,41,46)" text-rendering="geometricPrecision" shape-rendering="geometricPrecision" stroke="rgb(36,41,46)" stroke-miterlimit="1.45">
      <ellipse rx="76.6885" fill="none" ry="14.3506" clip-path="url(#clipPath2)" cx="312.4287" cy="14.3506"/>
      <text x="257.7402" y="19.0645" clip-path="url(#clipPath2)" fill="rgb(157,165,180)" font-family="sans-serif" stroke="none" xml:space="preserve">Натуральное число</text>
    </g>
    <g stroke-linecap="butt" transform="matrix(1,0,0,1,15,15)" fill-opacity="0" fill="rgb(255,255,255)" text-rendering="geometricPrecision" font-family="sans-serif" shape-rendering="geometricPrecision" stroke="rgb(255,255,255)" stroke-opacity="0" stroke-miterlimit="1.45">
      <text x="271.0762" xml:space="preserve" y="19.0645" clip-path="url(#clipPath2)" stroke="none">Natural number</text>
    </g>
    <g fill="rgb(89,94,103)" text-rendering="geometricPrecision" shape-rendering="geometricPrecision" transform="matrix(1,0,0,1,15,15)" stroke="rgb(89,94,103)">
      <ellipse rx="112.4834" ry="14.3506" clip-path="url(#clipPath2)" cx="348.2236" cy="403.96" stroke="none"/>
    </g>
    <g stroke-linecap="butt" transform="matrix(1,0,0,1,15,15)" fill="rgb(36,41,46)" text-rendering="geometricPrecision" shape-rendering="geometricPrecision" stroke="rgb(36,41,46)" stroke-miterlimit="1.45">
      <ellipse rx="112.4834" fill="none" ry="14.3506" clip-path="url(#clipPath2)" cx="348.2236" cy="403.96"/>
      <text x="257.7402" y="408.6738" clip-path="url(#clipPath2)" fill="rgb(157,165,180)" font-family="sans-serif" stroke="none" xml:space="preserve">Диапазон из натуральных чисел</text>
    </g>
    <g stroke-linecap="butt" transform="matrix(1,0,0,1,15,15)" fill-opacity="0" fill="rgb(255,255,255)" text-rendering="geometricPrecision" font-family="sans-serif" shape-rendering="geometricPrecision" stroke="rgb(255,255,255)" stroke-opacity="0" stroke-miterlimit="1.45">
      <text x="278.8486" xml:space="preserve" y="408.6738" clip-path="url(#clipPath2)" stroke="none">Range of natural numbers</text>
    </g>
    <g fill="rgb(89,94,103)" text-rendering="geometricPrecision" shape-rendering="geometricPrecision" transform="matrix(1,0,0,1,15,15)" stroke="rgb(89,94,103)">
      <ellipse rx="80.2803" ry="14.3506" clip-path="url(#clipPath2)" cx="580.9873" cy="355.2588" stroke="none"/>
    </g>
    <g stroke-linecap="butt" transform="matrix(1,0,0,1,15,15)" fill="rgb(36,41,46)" text-rendering="geometricPrecision" shape-rendering="geometricPrecision" stroke="rgb(36,41,46)" stroke-miterlimit="1.45">
      <ellipse rx="80.2803" fill="none" ry="14.3506" clip-path="url(#clipPath2)" cx="580.9873" cy="355.2588"/>
      <text x="522.707" y="359.9727" clip-path="url(#clipPath2)" fill="rgb(157,165,180)" font-family="sans-serif" stroke="none" xml:space="preserve">Начальное значение</text>
    </g>
    <g stroke-linecap="butt" transform="matrix(1,0,0,1,15,15)" fill-opacity="0" fill="rgb(255,255,255)" text-rendering="geometricPrecision" font-family="sans-serif" shape-rendering="geometricPrecision" stroke="rgb(255,255,255)" stroke-opacity="0" stroke-miterlimit="1.45">
      <text x="550.9697" xml:space="preserve" y="359.9727" clip-path="url(#clipPath2)" stroke="none">Initial value</text>
    </g>
    <g fill="rgb(89,94,103)" text-rendering="geometricPrecision" shape-rendering="geometricPrecision" transform="matrix(1,0,0,1,15,15)" stroke="rgb(89,94,103)">
      <ellipse rx="58.4922" ry="14.3506" clip-path="url(#clipPath2)" cx="559.1992" cy="501.3623" stroke="none"/>
    </g>
    <g stroke-linecap="butt" transform="matrix(1,0,0,1,15,15)" fill="rgb(36,41,46)" text-rendering="geometricPrecision" shape-rendering="geometricPrecision" stroke="rgb(36,41,46)" stroke-miterlimit="1.45">
      <ellipse rx="58.4922" fill="none" ry="14.3506" clip-path="url(#clipPath2)" cx="559.1992" cy="501.3623"/>
      <text x="522.707" y="506.0762" clip-path="url(#clipPath2)" fill="rgb(157,165,180)" font-family="sans-serif" stroke="none" xml:space="preserve">Разделитель</text>
    </g>
    <g stroke-linecap="butt" transform="matrix(1,0,0,1,15,15)" fill-opacity="0" fill="rgb(255,255,255)" text-rendering="geometricPrecision" font-family="sans-serif" shape-rendering="geometricPrecision" stroke="rgb(255,255,255)" stroke-opacity="0" stroke-miterlimit="1.45">
      <text x="532.8496" xml:space="preserve" y="506.0762" clip-path="url(#clipPath2)" stroke="none">Separator</text>
    </g>
    <g fill="rgb(89,94,103)" text-rendering="geometricPrecision" shape-rendering="geometricPrecision" transform="matrix(1,0,0,1,15,15)" stroke="rgb(89,94,103)">
      <ellipse rx="76.1289" ry="14.3506" clip-path="url(#clipPath2)" cx="576.8359" cy="403.96" stroke="none"/>
    </g>
    <g stroke-linecap="butt" transform="matrix(1,0,0,1,15,15)" fill="rgb(36,41,46)" text-rendering="geometricPrecision" shape-rendering="geometricPrecision" stroke="rgb(36,41,46)" stroke-miterlimit="1.45">
      <ellipse rx="76.1289" fill="none" ry="14.3506" clip-path="url(#clipPath2)" cx="576.8359" cy="403.96"/>
      <text x="522.707" y="408.6738" clip-path="url(#clipPath2)" fill="rgb(157,165,180)" font-family="sans-serif" stroke="none" xml:space="preserve">Конечное значение</text>
    </g>
    <g stroke-linecap="butt" transform="matrix(1,0,0,1,15,15)" fill-opacity="0" fill="rgb(255,255,255)" text-rendering="geometricPrecision" font-family="sans-serif" shape-rendering="geometricPrecision" stroke="rgb(255,255,255)" stroke-opacity="0" stroke-miterlimit="1.45">
      <text x="547.8203" xml:space="preserve" y="408.6738" clip-path="url(#clipPath2)" stroke="none">Final value</text>
    </g>
    <g fill="rgb(89,94,103)" text-rendering="geometricPrecision" shape-rendering="geometricPrecision" transform="matrix(1,0,0,1,15,15)" stroke="rgb(89,94,103)">
      <ellipse rx="39.6631" ry="14.3506" clip-path="url(#clipPath2)" cx="697.3545" cy="452.6611" stroke="none"/>
    </g>
    <g stroke-linecap="butt" transform="matrix(1,0,0,1,15,15)" fill="rgb(36,41,46)" text-rendering="geometricPrecision" shape-rendering="geometricPrecision" stroke="rgb(36,41,46)" stroke-miterlimit="1.45">
      <ellipse rx="39.6631" fill="none" ry="14.3506" clip-path="url(#clipPath2)" cx="697.3545" cy="452.6611"/>
      <text x="679.6914" y="457.375" clip-path="url(#clipPath2)" fill="rgb(157,165,180)" font-family="sans-serif" stroke="none" xml:space="preserve">Минус</text>
    </g>
    <g stroke-linecap="butt" transform="matrix(1,0,0,1,15,15)" fill-opacity="0" fill="rgb(255,255,255)" text-rendering="geometricPrecision" font-family="sans-serif" shape-rendering="geometricPrecision" stroke="rgb(255,255,255)" stroke-opacity="0" stroke-miterlimit="1.45">
      <text x="681.3496" xml:space="preserve" y="457.375" clip-path="url(#clipPath2)" stroke="none">Minus</text>
    </g>
    <g fill="rgb(89,94,103)" text-rendering="geometricPrecision" shape-rendering="geometricPrecision" transform="matrix(1,0,0,1,15,15)" stroke="rgb(89,94,103)">
      <ellipse rx="60.6572" ry="14.3506" clip-path="url(#clipPath2)" cx="718.3486" cy="550.0635" stroke="none"/>
    </g>
    <g stroke-linecap="butt" transform="matrix(1,0,0,1,15,15)" fill="rgb(36,41,46)" text-rendering="geometricPrecision" shape-rendering="geometricPrecision" stroke="rgb(36,41,46)" stroke-miterlimit="1.45">
      <ellipse rx="60.6572" fill="none" ry="14.3506" clip-path="url(#clipPath2)" cx="718.3486" cy="550.0635"/>
      <text x="679.6914" y="555.7773" clip-path="url(#clipPath2)" fill="rgb(157,165,180)" font-family="sans-serif" stroke="none" xml:space="preserve">Длинное тире</text>
    </g>
    <g stroke-linecap="butt" transform="matrix(1,0,0,1,15,15)" fill-opacity="0" fill="rgb(255,255,255)" text-rendering="geometricPrecision" font-family="sans-serif" shape-rendering="geometricPrecision" stroke="rgb(255,255,255)" stroke-opacity="0" stroke-miterlimit="1.45">
      <text x="690.3232" xml:space="preserve" y="554.7773" clip-path="url(#clipPath2)" stroke="none">Long dash</text>
    </g>
    <g fill="rgb(89,94,103)" text-rendering="geometricPrecision" shape-rendering="geometricPrecision" transform="matrix(1,0,0,1,15,15)" stroke="rgb(89,94,103)">
      <ellipse rx="35.6904" ry="14.3506" clip-path="url(#clipPath2)" cx="693.3818" cy="501.3623" stroke="none"/>
    </g>
    <g stroke-linecap="butt" transform="matrix(1,0,0,1,15,15)" fill="rgb(36,41,46)" text-rendering="geometricPrecision" shape-rendering="geometricPrecision" stroke="rgb(36,41,46)" stroke-miterlimit="1.45">
      <ellipse rx="35.6904" fill="none" ry="14.3506" clip-path="url(#clipPath2)" cx="693.3818" cy="501.3623"/>
      <text x="679.6914" y="506.0762" clip-path="url(#clipPath2)" fill="rgb(157,165,180)" font-family="sans-serif" stroke="none" xml:space="preserve">Тире</text>
    </g>
    <g stroke-linecap="butt" transform="matrix(1,0,0,1,15,15)" fill-opacity="0" fill="rgb(255,255,255)" text-rendering="geometricPrecision" font-family="sans-serif" shape-rendering="geometricPrecision" stroke="rgb(255,255,255)" stroke-opacity="0" stroke-miterlimit="1.45">
      <text x="679.6938" xml:space="preserve" y="506.0762" clip-path="url(#clipPath2)" stroke="none">Dash</text>
    </g>
    <g fill="rgb(89,94,103)" text-rendering="geometricPrecision" shape-rendering="geometricPrecision" transform="matrix(1,0,0,1,15,15)" stroke="rgb(89,94,103)">
      <ellipse rx="82.8789" ry="14.3506" clip-path="url(#clipPath2)" cx="475.6035" cy="257.8564" stroke="none"/>
    </g>
    <g stroke-linecap="butt" transform="matrix(1,0,0,1,15,15)" fill="rgb(36,41,46)" text-rendering="geometricPrecision" shape-rendering="geometricPrecision" stroke="rgb(36,41,46)" stroke-miterlimit="1.45">
      <ellipse rx="82.8789" fill="none" ry="14.3506" clip-path="url(#clipPath2)" cx="475.6035" cy="257.8564"/>
      <text x="414.7246" y="262.5703" clip-path="url(#clipPath2)" fill="rgb(157,165,180)" font-family="sans-serif" stroke="none" xml:space="preserve">Знак переноса строки</text>
    </g>
    <g stroke-linecap="butt" transform="matrix(1,0,0,1,15,15)" fill-opacity="0" fill="rgb(255,255,255)" text-rendering="geometricPrecision" font-family="sans-serif" shape-rendering="geometricPrecision" stroke="rgb(255,255,255)" stroke-opacity="0" stroke-miterlimit="1.45">
      <text x="420.9062" xml:space="preserve" y="262.5703" clip-path="url(#clipPath2)" stroke="none">Line break character</text>
    </g>
    <g fill="rgb(89,94,103)" text-rendering="geometricPrecision" shape-rendering="geometricPrecision" transform="matrix(1,0,0,1,15,15)" stroke="rgb(89,94,103)">
      <ellipse rx="44.793" ry="14.3506" clip-path="url(#clipPath2)" cx="437.5176" cy="306.5576" stroke="none"/>
    </g>
    <g stroke-linecap="butt" transform="matrix(1,0,0,1,15,15)" fill="rgb(36,41,46)" text-rendering="geometricPrecision" shape-rendering="geometricPrecision" stroke="rgb(36,41,46)" stroke-miterlimit="1.45">
      <ellipse rx="44.793" fill="none" ry="14.3506" clip-path="url(#clipPath2)" cx="437.5176" cy="306.5576"/>
      <text x="414.7246" y="311.2715" clip-path="url(#clipPath2)" fill="rgb(157,165,180)" font-family="sans-serif" stroke="none" xml:space="preserve">Запятая</text>
    </g>
    <g stroke-linecap="butt" transform="matrix(1,0,0,1,15,15)" fill-opacity="0" fill="rgb(255,255,255)" text-rendering="geometricPrecision" font-family="sans-serif" shape-rendering="geometricPrecision" stroke="rgb(255,255,255)" stroke-opacity="0" stroke-miterlimit="1.45">
      <text x="416.5146" xml:space="preserve" y="311.2715" clip-path="url(#clipPath2)" stroke="none">Comma</text>
    </g>
    <g fill="rgb(89,94,103)" text-rendering="geometricPrecision" shape-rendering="geometricPrecision" transform="matrix(1,0,0,1,15,15)" stroke="rgb(89,94,103)">
      <ellipse rx="58.4922" ry="14.3506" clip-path="url(#clipPath2)" cx="294.2324" cy="184.8047" stroke="none"/>
    </g>
    <g stroke-linecap="butt" transform="matrix(1,0,0,1,15,15)" fill="rgb(36,41,46)" text-rendering="geometricPrecision" shape-rendering="geometricPrecision" stroke="rgb(36,41,46)" stroke-miterlimit="1.45">
      <ellipse rx="58.4922" fill="none" ry="14.3506" clip-path="url(#clipPath2)" cx="294.2324" cy="184.8047"/>
      <text x="257.7402" y="189.5186" clip-path="url(#clipPath2)" fill="rgb(157,165,180)" font-family="sans-serif" stroke="none" xml:space="preserve">Разделитель</text>
    </g>
    <g stroke-linecap="butt" transform="matrix(1,0,0,1,15,15)" fill-opacity="0" fill="rgb(255,255,255)" text-rendering="geometricPrecision" font-family="sans-serif" shape-rendering="geometricPrecision" stroke="rgb(255,255,255)" stroke-opacity="0" stroke-miterlimit="1.45">
      <text x="267.8828" xml:space="preserve" y="189.5186" clip-path="url(#clipPath2)" stroke="none">Separator</text>
    </g>
    <g stroke-linecap="butt" transform="matrix(1,0,0,1,15,15)" fill="rgb(89,94,103)" text-rendering="geometricPrecision" shape-rendering="geometricPrecision" stroke="rgb(89,94,103)" stroke-miterlimit="1.45">
      <path fill="none" d="M195.7402 184.8047 L233.9126 22.139" clip-path="url(#clipPath2)"/>
      <path d="M235.7402 14.3506 L228.131 24.8909 L233.6841 23.1126 L237.8665 27.1755 Z" clip-path="url(#clipPath2)" stroke="none"/>
      <path fill="none" d="M195.7402 184.8047 L234.3038 396.09" clip-path="url(#clipPath2)"/>
      <path d="M235.7402 403.96 L238.5043 391.2572 L234.1243 395.1062 L228.6669 393.0527 Z" clip-path="url(#clipPath2)" stroke="none"/>
      <path fill="none" d="M460.707 403.96 L495.6295 361.4409" clip-path="url(#clipPath2)"/>
      <path d="M500.707 355.2588 L489.2269 361.3585 L494.9948 362.2137 L496.9545 367.7054 Z" clip-path="url(#clipPath2)" stroke="none"/>
      <path fill="none" d="M460.707 403.96 L497.668 493.962" clip-path="url(#clipPath2)"/>
      <path d="M500.707 501.3623 L500.7736 488.3625 L497.2881 493.037 L491.5233 492.1613 Z" clip-path="url(#clipPath2)" stroke="none"/>
      <path fill="none" d="M460.707 403.96 L492.707 403.96" clip-path="url(#clipPath2)"/>
      <path d="M500.707 403.96 L488.707 398.96 L491.707 403.96 L488.707 408.96 Z" clip-path="url(#clipPath2)" stroke="none"/>
      <path fill="none" d="M617.6914 501.3623 L652.6138 458.8432" clip-path="url(#clipPath2)"/>
      <path d="M657.6914 452.6611 L646.2112 458.7608 L651.9791 459.616 L653.9388 465.1078 Z" clip-path="url(#clipPath2)" stroke="none"/>
      <path fill="none" d="M617.6914 501.3623 L652.6138 543.8814" clip-path="url(#clipPath2)"/>
      <path d="M657.6914 550.0635 L653.9388 537.6169 L651.9791 543.1086 L646.2112 543.9639 Z" clip-path="url(#clipPath2)" stroke="none"/>
      <path fill="none" d="M617.6914 501.3623 L649.6914 501.3623" clip-path="url(#clipPath2)"/>
      <path d="M657.6914 501.3623 L645.6914 496.3623 L648.6914 501.3623 L645.6914 506.3623 Z" clip-path="url(#clipPath2)" stroke="none"/>
      <path fill="none" d="M195.7402 184.8047 L227.7402 184.8047" clip-path="url(#clipPath2)"/>
      <path d="M235.7402 184.8047 L223.7402 179.8047 L226.7402 184.8047 L223.7402 189.8047 Z" clip-path="url(#clipPath2)" stroke="none"/>
      <path fill="none" d="M352.7246 184.8047 L390.2276 70.6521" clip-path="url(#clipPath2)"/>
      <path d="M392.7246 63.0518 L384.2289 72.8916 L389.9155 71.6021 L393.7293 76.0129 Z" clip-path="url(#clipPath2)" stroke="none"/>
      <path fill="none" d="M352.7246 184.8047 L388.8824 118.7699" clip-path="url(#clipPath2)"/>
      <path d="M392.7246 111.7529 L382.5757 119.877 L388.4021 119.647 L391.3469 124.6797 Z" clip-path="url(#clipPath2)" stroke="none"/>
      <path fill="none" d="M352.7246 184.8047 L385.8912 164.614" clip-path="url(#clipPath2)"/>
      <path d="M392.7246 160.4541 L379.8746 162.4231 L385.037 165.134 L385.0745 170.9648 Z" clip-path="url(#clipPath2)" stroke="none"/>
      <path fill="none" d="M352.7246 184.8047 L385.8912 204.9954" clip-path="url(#clipPath2)"/>
      <path d="M392.7246 209.1553 L385.0745 198.6445 L385.037 204.4754 L379.8746 207.1863 Z" clip-path="url(#clipPath2)" stroke="none"/>
      <path fill="none" d="M352.7246 184.8047 L388.8824 250.8395" clip-path="url(#clipPath2)"/>
      <path d="M392.7246 257.8564 L391.3469 244.9297 L388.4021 249.9624 L382.5757 249.7324 Z" clip-path="url(#clipPath2)" stroke="none"/>
      <path fill="none" d="M352.7246 184.8047 L390.2276 298.9573" clip-path="url(#clipPath2)"/>
      <path d="M392.7246 306.5576 L393.7293 293.5965 L389.9155 298.0072 L384.2289 296.7177 Z" clip-path="url(#clipPath2)" stroke="none"/>
    </g>
  </g>
</svg>
