<?xml version="1.0" encoding="UTF-8"?><svg xmlns="http://www.w3.org/2000/svg" xmlns:xlink="http://www.w3.org/1999/xlink" fill-opacity="1" color-rendering="auto" color-interpolation="auto" text-rendering="auto" stroke="black" stroke-linecap="square" width="798" stroke-miterlimit="10" shape-rendering="auto" stroke-opacity="1" fill="black" stroke-dasharray="none" font-weight="normal" stroke-width="1" height="688" font-family="'Dialog'" font-style="normal" stroke-linejoin="miter" font-size="12px" stroke-dashoffset="0" image-rendering="auto">
  <!--Generated by ySVG 2.5-->
  <defs id="genericDefs"/>
  <g>
    <defs id="defs1">
      <clipPath clipPathUnits="userSpaceOnUse" id="clipPath1">
        <path d="M0 0 L798 0 L798 688 L0 688 L0 0 Z"/>
      </clipPath>
      <clipPath clipPathUnits="userSpaceOnUse" id="clipPath2">
        <path d="M-15 -15 L783 -15 L783 673 L-15 673 L-15 -15 Z"/>
      </clipPath>
    </defs>
    <g fill="rgb(49,54,63)" text-rendering="geometricPrecision" shape-rendering="geometricPrecision" transform="translate(15,15)" stroke="rgb(49,54,63)">
      <rect x="-15" width="798" height="688" y="-15" clip-path="url(#clipPath2)" stroke="none"/>
    </g>
    <g fill="rgb(89,94,103)" text-rendering="geometricPrecision" shape-rendering="geometricPrecision" transform="matrix(1,0,0,1,15,15)" stroke="rgb(89,94,103)">
      <ellipse rx="117.9736" ry="14.3506" clip-path="url(#clipPath2)" cx="117.9736" cy="277.6094" stroke="none"/>
    </g>
    <g stroke-linecap="butt" transform="matrix(1,0,0,1,15,15)" fill="rgb(36,41,46)" text-rendering="geometricPrecision" shape-rendering="geometricPrecision" stroke="rgb(36,41,46)" stroke-miterlimit="1.45">
      <ellipse rx="117.9736" fill="none" ry="14.3506" clip-path="url(#clipPath2)" cx="117.9736" cy="277.6094"/>
      <text x="22" y="282.3232" clip-path="url(#clipPath2)" fill="rgb(157,165,180)" font-family="sans-serif" stroke="none" xml:space="preserve">Список позиционных обозначений</text>
    </g>
    <g stroke-linecap="butt" transform="matrix(1,0,0,1,15,15)" fill-opacity="0" fill="rgb(255,255,255)" text-rendering="geometricPrecision" font-family="sans-serif" shape-rendering="geometricPrecision" stroke="rgb(255,255,255)" stroke-opacity="0" stroke-miterlimit="1.45">
      <text x="44.2598" xml:space="preserve" y="282.3232" clip-path="url(#clipPath2)" stroke="none">List of position designations</text>
    </g>
    <g fill="rgb(89,94,103)" text-rendering="geometricPrecision" shape-rendering="geometricPrecision" transform="matrix(1,0,0,1,15,15)" stroke="rgb(89,94,103)">
      <ellipse rx="58.4922" ry="14.3506" clip-path="url(#clipPath2)" cx="334.4395" cy="277.6094" stroke="none"/>
    </g>
    <g stroke-linecap="butt" transform="matrix(1,0,0,1,15,15)" fill="rgb(36,41,46)" text-rendering="geometricPrecision" shape-rendering="geometricPrecision" stroke="rgb(36,41,46)" stroke-miterlimit="1.45">
      <ellipse rx="58.4922" fill="none" ry="14.3506" clip-path="url(#clipPath2)" cx="334.4395" cy="277.6094"/>
      <text x="297.9473" y="282.3232" clip-path="url(#clipPath2)" fill="rgb(157,165,180)" font-family="sans-serif" stroke="none" xml:space="preserve">Разделитель</text>
    </g>
    <g stroke-linecap="butt" transform="matrix(1,0,0,1,15,15)" fill-opacity="0" fill="rgb(255,255,255)" text-rendering="geometricPrecision" font-family="sans-serif" shape-rendering="geometricPrecision" stroke="rgb(255,255,255)" stroke-opacity="0" stroke-miterlimit="1.45">
      <text x="308.0898" xml:space="preserve" y="282.3232" clip-path="url(#clipPath2)" stroke="none">Separator</text>
    </g>
    <g fill="rgb(89,94,103)" text-rendering="geometricPrecision" shape-rendering="geometricPrecision" transform="matrix(1,0,0,1,15,15)" stroke="rgb(89,94,103)">
      <ellipse rx="43.2607" ry="14.3506" clip-path="url(#clipPath2)" cx="476.1924" cy="155.8564" stroke="none"/>
    </g>
    <g stroke-linecap="butt" transform="matrix(1,0,0,1,15,15)" fill="rgb(36,41,46)" text-rendering="geometricPrecision" shape-rendering="geometricPrecision" stroke="rgb(36,41,46)" stroke-miterlimit="1.45">
      <ellipse rx="43.2607" fill="none" ry="14.3506" clip-path="url(#clipPath2)" cx="476.1924" cy="155.8564"/>
      <text x="454.9316" y="160.5703" clip-path="url(#clipPath2)" fill="rgb(157,165,180)" font-family="sans-serif" stroke="none" xml:space="preserve">Пробел</text>
    </g>
    <g stroke-linecap="butt" transform="matrix(1,0,0,1,15,15)" fill-opacity="0" fill="rgb(255,255,255)" text-rendering="geometricPrecision" font-family="sans-serif" shape-rendering="geometricPrecision" stroke="rgb(255,255,255)" stroke-opacity="0" stroke-miterlimit="1.45">
      <text x="459.1797" xml:space="preserve" y="160.5703" clip-path="url(#clipPath2)" stroke="none">Space</text>
    </g>
    <g fill="rgb(89,94,103)" text-rendering="geometricPrecision" shape-rendering="geometricPrecision" transform="matrix(1,0,0,1,15,15)" stroke="rgb(89,94,103)">
      <ellipse rx="38.0898" ry="14.3506" clip-path="url(#clipPath2)" cx="471.0215" cy="204.5576" stroke="none"/>
    </g>
    <g stroke-linecap="butt" transform="matrix(1,0,0,1,15,15)" fill="rgb(36,41,46)" text-rendering="geometricPrecision" shape-rendering="geometricPrecision" stroke="rgb(36,41,46)" stroke-miterlimit="1.45">
      <ellipse rx="38.0898" fill="none" ry="14.3506" clip-path="url(#clipPath2)" cx="471.0215" cy="204.5576"/>
      <text x="454.9316" y="209.2715" clip-path="url(#clipPath2)" fill="rgb(157,165,180)" font-family="sans-serif" stroke="none" xml:space="preserve">Точка</text>
    </g>
    <g stroke-linecap="butt" transform="matrix(1,0,0,1,15,15)" fill-opacity="0" fill="rgb(255,255,255)" text-rendering="geometricPrecision" font-family="sans-serif" shape-rendering="geometricPrecision" stroke="rgb(255,255,255)" stroke-opacity="0" stroke-miterlimit="1.45">
      <text x="457.3457" xml:space="preserve" y="209.2715" clip-path="url(#clipPath2)" stroke="none">Point</text>
    </g>
    <g fill="rgb(89,94,103)" text-rendering="geometricPrecision" shape-rendering="geometricPrecision" transform="matrix(1,0,0,1,15,15)" stroke="rgb(89,94,103)">
      <ellipse rx="66.4463" ry="14.3506" clip-path="url(#clipPath2)" cx="499.3779" cy="253.2588" stroke="none"/>
    </g>
    <g stroke-linecap="butt" transform="matrix(1,0,0,1,15,15)" fill="rgb(36,41,46)" text-rendering="geometricPrecision" shape-rendering="geometricPrecision" stroke="rgb(36,41,46)" stroke-miterlimit="1.45">
      <ellipse rx="66.4463" fill="none" ry="14.3506" clip-path="url(#clipPath2)" cx="499.3779" cy="253.2588"/>
      <text x="454.9316" y="257.9727" clip-path="url(#clipPath2)" fill="rgb(157,165,180)" font-family="sans-serif" stroke="none" xml:space="preserve">Точка с запятой</text>
    </g>
    <g stroke-linecap="butt" transform="matrix(1,0,0,1,15,15)" fill-opacity="0" fill="rgb(255,255,255)" text-rendering="geometricPrecision" font-family="sans-serif" shape-rendering="geometricPrecision" stroke="rgb(255,255,255)" stroke-opacity="0" stroke-miterlimit="1.45">
      <text x="471.3643" xml:space="preserve" y="257.9727" clip-path="url(#clipPath2)" stroke="none">Semicolon</text>
    </g>
    <g fill="rgb(89,94,103)" text-rendering="geometricPrecision" shape-rendering="geometricPrecision" transform="matrix(1,0,0,1,15,15)" stroke="rgb(89,94,103)">
      <ellipse rx="65.9775" ry="14.3506" clip-path="url(#clipPath2)" cx="498.9092" cy="301.96" stroke="none"/>
    </g>
    <g stroke-linecap="butt" transform="matrix(1,0,0,1,15,15)" fill="rgb(36,41,46)" text-rendering="geometricPrecision" shape-rendering="geometricPrecision" stroke="rgb(36,41,46)" stroke-miterlimit="1.45">
      <ellipse rx="65.9775" fill="none" ry="14.3506" clip-path="url(#clipPath2)" cx="498.9092" cy="301.96"/>
      <text x="454.9316" y="306.6738" clip-path="url(#clipPath2)" fill="rgb(157,165,180)" font-family="sans-serif" stroke="none" xml:space="preserve">Знак табуляции</text>
    </g>
    <g stroke-linecap="butt" transform="matrix(1,0,0,1,15,15)" fill-opacity="0" fill="rgb(255,255,255)" text-rendering="geometricPrecision" font-family="sans-serif" shape-rendering="geometricPrecision" stroke="rgb(255,255,255)" stroke-opacity="0" stroke-miterlimit="1.45">
      <text x="461.8926" xml:space="preserve" y="306.6738" clip-path="url(#clipPath2)" stroke="none">Tab character</text>
    </g>
    <g fill="rgb(89,94,103)" text-rendering="geometricPrecision" shape-rendering="geometricPrecision" transform="matrix(1,0,0,1,15,15)" stroke="rgb(89,94,103)">
      <ellipse rx="59.3066" ry="14.3506" clip-path="url(#clipPath2)" cx="335.2539" cy="71.7788" stroke="none"/>
    </g>
    <g stroke-linecap="butt" transform="matrix(1,0,0,1,15,15)" fill="rgb(36,41,46)" text-rendering="geometricPrecision" shape-rendering="geometricPrecision" stroke="rgb(36,41,46)" stroke-miterlimit="1.45">
      <ellipse rx="59.3066" fill="none" ry="14.3506" clip-path="url(#clipPath2)" cx="335.2539" cy="71.7788"/>
      <text x="297.9473" y="76.4927" clip-path="url(#clipPath2)" fill="rgb(157,165,180)" font-family="sans-serif" stroke="none" xml:space="preserve">Обозначение</text>
    </g>
    <g stroke-linecap="butt" transform="matrix(1,0,0,1,15,15)" fill-opacity="0" fill="rgb(255,255,255)" text-rendering="geometricPrecision" font-family="sans-serif" shape-rendering="geometricPrecision" stroke="rgb(255,255,255)" stroke-opacity="0" stroke-miterlimit="1.45">
      <text x="281.5498" xml:space="preserve" y="76.4927" clip-path="url(#clipPath2)" stroke="none">Position designation</text>
    </g>
    <g fill="rgb(89,94,103)" text-rendering="geometricPrecision" shape-rendering="geometricPrecision" transform="matrix(1,0,0,1,15,15)" stroke="rgb(89,94,103)">
      <ellipse rx="86.3975" ry="14.3506" clip-path="url(#clipPath2)" cx="362.3447" cy="496.7646" stroke="none"/>
    </g>
    <g stroke-linecap="butt" transform="matrix(1,0,0,1,15,15)" fill="rgb(36,41,46)" text-rendering="geometricPrecision" shape-rendering="geometricPrecision" stroke="rgb(36,41,46)" stroke-miterlimit="1.45">
      <ellipse rx="86.3975" fill="none" ry="14.3506" clip-path="url(#clipPath2)" cx="362.3447" cy="496.7646"/>
      <text x="297.9473" y="501.4785" clip-path="url(#clipPath2)" fill="rgb(157,165,180)" font-family="sans-serif" stroke="none" xml:space="preserve">Диапазон обозначений</text>
    </g>
    <g stroke-linecap="butt" transform="matrix(1,0,0,1,15,15)" fill-opacity="0" fill="rgb(255,255,255)" text-rendering="geometricPrecision" font-family="sans-serif" shape-rendering="geometricPrecision" stroke="rgb(255,255,255)" stroke-opacity="0" stroke-miterlimit="1.45">
      <text x="302.6348" xml:space="preserve" y="501.4785" clip-path="url(#clipPath2)" stroke="none">Range of designations</text>
    </g>
    <g fill="rgb(89,94,103)" text-rendering="geometricPrecision" shape-rendering="geometricPrecision" transform="matrix(1,0,0,1,15,15)" stroke="rgb(89,94,103)">
      <ellipse rx="90.3906" ry="14.3506" clip-path="url(#clipPath2)" cx="579.1328" cy="448.0635" stroke="none"/>
    </g>
    <g stroke-linecap="butt" transform="matrix(1,0,0,1,15,15)" fill="rgb(36,41,46)" text-rendering="geometricPrecision" shape-rendering="geometricPrecision" stroke="rgb(36,41,46)" stroke-miterlimit="1.45">
      <ellipse rx="90.3906" fill="none" ry="14.3506" clip-path="url(#clipPath2)" cx="579.1328" cy="448.0635"/>
      <text x="510.7422" y="452.7773" clip-path="url(#clipPath2)" fill="rgb(157,165,180)" font-family="sans-serif" stroke="none" xml:space="preserve">Начальное обозначение</text>
    </g>
    <g stroke-linecap="butt" transform="matrix(1,0,0,1,15,15)" fill-opacity="0" fill="rgb(255,255,255)" text-rendering="geometricPrecision" font-family="sans-serif" shape-rendering="geometricPrecision" stroke="rgb(255,255,255)" stroke-opacity="0" stroke-miterlimit="1.45">
      <text x="549.1152" xml:space="preserve" y="452.7773" clip-path="url(#clipPath2)" stroke="none">Initial value</text>
    </g>
    <g fill="rgb(89,94,103)" text-rendering="geometricPrecision" shape-rendering="geometricPrecision" transform="matrix(1,0,0,1,15,15)" stroke="rgb(89,94,103)">
      <ellipse rx="58.4922" ry="14.3506" clip-path="url(#clipPath2)" cx="547.2344" cy="594.167" stroke="none"/>
    </g>
    <g stroke-linecap="butt" transform="matrix(1,0,0,1,15,15)" fill="rgb(36,41,46)" text-rendering="geometricPrecision" shape-rendering="geometricPrecision" stroke="rgb(36,41,46)" stroke-miterlimit="1.45">
      <ellipse rx="58.4922" fill="none" ry="14.3506" clip-path="url(#clipPath2)" cx="547.2344" cy="594.167"/>
      <text x="510.7422" y="598.8809" clip-path="url(#clipPath2)" fill="rgb(157,165,180)" font-family="sans-serif" stroke="none" xml:space="preserve">Разделитель</text>
    </g>
    <g stroke-linecap="butt" transform="matrix(1,0,0,1,15,15)" fill-opacity="0" fill="rgb(255,255,255)" text-rendering="geometricPrecision" font-family="sans-serif" shape-rendering="geometricPrecision" stroke="rgb(255,255,255)" stroke-opacity="0" stroke-miterlimit="1.45">
      <text x="520.8848" xml:space="preserve" y="598.8809" clip-path="url(#clipPath2)" stroke="none">Separator</text>
    </g>
    <g fill="rgb(89,94,103)" text-rendering="geometricPrecision" shape-rendering="geometricPrecision" transform="matrix(1,0,0,1,15,15)" stroke="rgb(89,94,103)">
      <ellipse rx="86.2393" ry="14.3506" clip-path="url(#clipPath2)" cx="574.9814" cy="496.7646" stroke="none"/>
    </g>
    <g stroke-linecap="butt" transform="matrix(1,0,0,1,15,15)" fill="rgb(36,41,46)" text-rendering="geometricPrecision" shape-rendering="geometricPrecision" stroke="rgb(36,41,46)" stroke-miterlimit="1.45">
      <ellipse rx="86.2393" fill="none" ry="14.3506" clip-path="url(#clipPath2)" cx="574.9814" cy="496.7646"/>
      <text x="510.7422" y="501.4785" clip-path="url(#clipPath2)" fill="rgb(157,165,180)" font-family="sans-serif" stroke="none" xml:space="preserve">Конечное обозначение</text>
    </g>
    <g stroke-linecap="butt" transform="matrix(1,0,0,1,15,15)" fill-opacity="0" fill="rgb(255,255,255)" text-rendering="geometricPrecision" font-family="sans-serif" shape-rendering="geometricPrecision" stroke="rgb(255,255,255)" stroke-opacity="0" stroke-miterlimit="1.45">
      <text x="545.9658" xml:space="preserve" y="501.4785" clip-path="url(#clipPath2)" stroke="none">Final value</text>
    </g>
    <g fill="rgb(89,94,103)" text-rendering="geometricPrecision" shape-rendering="geometricPrecision" transform="matrix(1,0,0,1,15,15)" stroke="rgb(89,94,103)">
      <ellipse rx="39.6631" ry="14.3506" clip-path="url(#clipPath2)" cx="685.3896" cy="545.4658" stroke="none"/>
    </g>
    <g stroke-linecap="butt" transform="matrix(1,0,0,1,15,15)" fill="rgb(36,41,46)" text-rendering="geometricPrecision" shape-rendering="geometricPrecision" stroke="rgb(36,41,46)" stroke-miterlimit="1.45">
      <ellipse rx="39.6631" fill="none" ry="14.3506" clip-path="url(#clipPath2)" cx="685.3896" cy="545.4658"/>
      <text x="667.7266" y="550.1797" clip-path="url(#clipPath2)" fill="rgb(157,165,180)" font-family="sans-serif" stroke="none" xml:space="preserve">Минус</text>
    </g>
    <g stroke-linecap="butt" transform="matrix(1,0,0,1,15,15)" fill-opacity="0" fill="rgb(255,255,255)" text-rendering="geometricPrecision" font-family="sans-serif" shape-rendering="geometricPrecision" stroke="rgb(255,255,255)" stroke-opacity="0" stroke-miterlimit="1.45">
      <text x="669.3848" xml:space="preserve" y="550.1797" clip-path="url(#clipPath2)" stroke="none">Minus</text>
    </g>
    <g fill="rgb(89,94,103)" text-rendering="geometricPrecision" shape-rendering="geometricPrecision" transform="matrix(1,0,0,1,15,15)" stroke="rgb(89,94,103)">
      <ellipse rx="60.6572" ry="14.3506" clip-path="url(#clipPath2)" cx="706.3838" cy="642.8682" stroke="none"/>
    </g>
    <g stroke-linecap="butt" transform="matrix(1,0,0,1,15,15)" fill="rgb(36,41,46)" text-rendering="geometricPrecision" shape-rendering="geometricPrecision" stroke="rgb(36,41,46)" stroke-miterlimit="1.45">
      <ellipse rx="60.6572" fill="none" ry="14.3506" clip-path="url(#clipPath2)" cx="706.3838" cy="642.8682"/>
      <text x="667.7266" y="647.582" clip-path="url(#clipPath2)" fill="rgb(157,165,180)" font-family="sans-serif" stroke="none" xml:space="preserve">Длинное тире</text>
    </g>
    <g stroke-linecap="butt" transform="matrix(1,0,0,1,15,15)" fill-opacity="0" fill="rgb(255,255,255)" text-rendering="geometricPrecision" font-family="sans-serif" shape-rendering="geometricPrecision" stroke="rgb(255,255,255)" stroke-opacity="0" stroke-miterlimit="1.45">
      <text x="678.3584" xml:space="preserve" y="647.582" clip-path="url(#clipPath2)" stroke="none">Long dash</text>
    </g>
    <g fill="rgb(89,94,103)" text-rendering="geometricPrecision" shape-rendering="geometricPrecision" transform="matrix(1,0,0,1,15,15)" stroke="rgb(89,94,103)">
      <ellipse rx="35.6904" ry="14.3506" clip-path="url(#clipPath2)" cx="681.417" cy="594.167" stroke="none"/>
    </g>
    <g stroke-linecap="butt" transform="matrix(1,0,0,1,15,15)" fill="rgb(36,41,46)" text-rendering="geometricPrecision" shape-rendering="geometricPrecision" stroke="rgb(36,41,46)" stroke-miterlimit="1.45">
      <ellipse rx="35.6904" fill="none" ry="14.3506" clip-path="url(#clipPath2)" cx="681.417" cy="594.167"/>
      <text x="667.7266" y="598.8809" clip-path="url(#clipPath2)" fill="rgb(157,165,180)" font-family="sans-serif" stroke="none" xml:space="preserve">Тире</text>
    </g>
    <g stroke-linecap="butt" transform="matrix(1,0,0,1,15,15)" fill-opacity="0" fill="rgb(255,255,255)" text-rendering="geometricPrecision" font-family="sans-serif" shape-rendering="geometricPrecision" stroke="rgb(255,255,255)" stroke-opacity="0" stroke-miterlimit="1.45">
      <text x="667.4102" xml:space="preserve" y="598.8809" clip-path="url(#clipPath2)" stroke="none">Dash</text>
    </g>
    <g fill="rgb(89,94,103)" text-rendering="geometricPrecision" shape-rendering="geometricPrecision" transform="matrix(1,0,0,1,15,15)" stroke="rgb(89,94,103)">
      <ellipse rx="82.8789" ry="14.3506" clip-path="url(#clipPath2)" cx="515.8105" cy="350.6611" stroke="none"/>
    </g>
    <g stroke-linecap="butt" transform="matrix(1,0,0,1,15,15)" fill="rgb(36,41,46)" text-rendering="geometricPrecision" shape-rendering="geometricPrecision" stroke="rgb(36,41,46)" stroke-miterlimit="1.45">
      <ellipse rx="82.8789" fill="none" ry="14.3506" clip-path="url(#clipPath2)" cx="515.8105" cy="350.6611"/>
      <text x="454.9316" y="355.375" clip-path="url(#clipPath2)" fill="rgb(157,165,180)" font-family="sans-serif" stroke="none" xml:space="preserve">Знак переноса строки</text>
    </g>
    <g stroke-linecap="butt" transform="matrix(1,0,0,1,15,15)" fill-opacity="0" fill="rgb(255,255,255)" text-rendering="geometricPrecision" font-family="sans-serif" shape-rendering="geometricPrecision" stroke="rgb(255,255,255)" stroke-opacity="0" stroke-miterlimit="1.45">
      <text x="461.1133" xml:space="preserve" y="355.375" clip-path="url(#clipPath2)" stroke="none">Line break character</text>
    </g>
    <g fill="rgb(89,94,103)" text-rendering="geometricPrecision" shape-rendering="geometricPrecision" transform="matrix(1,0,0,1,15,15)" stroke="rgb(89,94,103)">
      <ellipse rx="44.793" ry="14.3506" clip-path="url(#clipPath2)" cx="477.7246" cy="399.3623" stroke="none"/>
    </g>
    <g stroke-linecap="butt" transform="matrix(1,0,0,1,15,15)" fill="rgb(36,41,46)" text-rendering="geometricPrecision" shape-rendering="geometricPrecision" stroke="rgb(36,41,46)" stroke-miterlimit="1.45">
      <ellipse rx="44.793" fill="none" ry="14.3506" clip-path="url(#clipPath2)" cx="477.7246" cy="399.3623"/>
      <text x="454.9316" y="404.0762" clip-path="url(#clipPath2)" fill="rgb(157,165,180)" font-family="sans-serif" stroke="none" xml:space="preserve">Запятая</text>
    </g>
    <g stroke-linecap="butt" transform="matrix(1,0,0,1,15,15)" fill-opacity="0" fill="rgb(255,255,255)" text-rendering="geometricPrecision" font-family="sans-serif" shape-rendering="geometricPrecision" stroke="rgb(255,255,255)" stroke-opacity="0" stroke-miterlimit="1.45">
      <text x="456.7217" xml:space="preserve" y="404.0762" clip-path="url(#clipPath2)" stroke="none">Comma</text>
    </g>
    <g fill="rgb(89,94,103)" text-rendering="geometricPrecision" shape-rendering="geometricPrecision" transform="matrix(1,0,0,1,15,15)" stroke="rgb(89,94,103)">
      <ellipse rx="94.2021" ry="36.4023" clip-path="url(#clipPath2)" cx="528.7627" cy="36.4023" stroke="none"/>
    </g>
    <g stroke-linecap="butt" transform="matrix(1,0,0,1,15,15)" fill="rgb(36,41,46)" text-rendering="geometricPrecision" shape-rendering="geometricPrecision" stroke="rgb(36,41,46)" stroke-miterlimit="1.45">
      <ellipse rx="94.2021" fill="none" ry="36.4023" clip-path="url(#clipPath2)" cx="528.7627" cy="36.4023"/>
      <text x="511.7002" y="19.0645" clip-path="url(#clipPath2)" fill="rgb(157,165,180)" font-family="sans-serif" stroke="none" xml:space="preserve">Буквы</text>
      <text x="486.3789" y="33.7656" clip-path="url(#clipPath2)" fill="rgb(157,165,180)" font-family="sans-serif" stroke="none" xml:space="preserve">(одна или две, </text>
      <text x="456.5605" y="48.4668" clip-path="url(#clipPath2)" fill="rgb(157,165,180)" font-family="sans-serif" stroke="none" xml:space="preserve">строчные или прописные </text>
      <text x="498.2002" y="63.168" clip-path="url(#clipPath2)" fill="rgb(157,165,180)" font-family="sans-serif" stroke="none" xml:space="preserve">латинские)</text>
    </g>
    <g stroke-linecap="butt" transform="matrix(1,0,0,1,15,15)" fill-opacity="0" fill="rgb(255,255,255)" text-rendering="geometricPrecision" font-family="sans-serif" shape-rendering="geometricPrecision" stroke="rgb(255,255,255)" stroke-opacity="0" stroke-miterlimit="1.45">
      <text x="510.4199" xml:space="preserve" y="19.0645" clip-path="url(#clipPath2)" stroke="none">Letters</text>
      <text x="495.4141" xml:space="preserve" y="33.7656" clip-path="url(#clipPath2)" stroke="none">(one or two, </text>
      <text x="463.3955" xml:space="preserve" y="48.4668" clip-path="url(#clipPath2)" stroke="none">lowercase or uppercase </text>
      <text x="513.7539" xml:space="preserve" y="63.168" clip-path="url(#clipPath2)" stroke="none">Latin)</text>
    </g>
    <g fill="rgb(89,94,103)" text-rendering="geometricPrecision" shape-rendering="geometricPrecision" transform="matrix(1,0,0,1,15,15)" stroke="rgb(89,94,103)">
      <ellipse rx="39.1885" ry="14.3506" clip-path="url(#clipPath2)" cx="473.749" cy="107.1553" stroke="none"/>
    </g>
    <g stroke-linecap="butt" transform="matrix(1,0,0,1,15,15)" fill="rgb(36,41,46)" text-rendering="geometricPrecision" shape-rendering="geometricPrecision" stroke="rgb(36,41,46)" stroke-miterlimit="1.45">
      <ellipse rx="39.1885" fill="none" ry="14.3506" clip-path="url(#clipPath2)" cx="473.749" cy="107.1553"/>
      <text x="456.5605" y="111.8691" clip-path="url(#clipPath2)" fill="rgb(157,165,180)" font-family="sans-serif" stroke="none" xml:space="preserve">Число</text>
    </g>
    <g stroke-linecap="butt" transform="matrix(1,0,0,1,15,15)" fill-opacity="0" fill="rgb(255,255,255)" text-rendering="geometricPrecision" font-family="sans-serif" shape-rendering="geometricPrecision" stroke="rgb(255,255,255)" stroke-opacity="0" stroke-miterlimit="1.45">
      <text x="452.4092" xml:space="preserve" y="111.8691" clip-path="url(#clipPath2)" stroke="none">Number</text>
    </g>
    <g stroke-linecap="butt" transform="matrix(1,0,0,1,15,15)" fill="rgb(89,94,103)" text-rendering="geometricPrecision" shape-rendering="geometricPrecision" stroke="rgb(89,94,103)" stroke-miterlimit="1.45">
      <path fill="none" d="M235.9473 277.6094 L267.9473 277.6094" clip-path="url(#clipPath2)"/>
      <path d="M275.9473 277.6094 L263.9473 272.6094 L266.9473 277.6094 L263.9473 282.6094 Z" clip-path="url(#clipPath2)" stroke="none"/>
      <path fill="none" d="M392.9316 277.6094 L430.4347 163.4568" clip-path="url(#clipPath2)"/>
      <path d="M432.9316 155.8564 L424.436 165.6963 L430.1225 164.4068 L433.9364 168.8176 Z" clip-path="url(#clipPath2)" stroke="none"/>
      <path fill="none" d="M392.9316 277.6094 L429.0894 211.5746" clip-path="url(#clipPath2)"/>
      <path d="M432.9316 204.5576 L422.7828 212.6817 L428.6092 212.4517 L431.554 217.4844 Z" clip-path="url(#clipPath2)" stroke="none"/>
      <path fill="none" d="M392.9316 277.6094 L426.0983 257.4187" clip-path="url(#clipPath2)"/>
      <path d="M432.9316 253.2588 L420.0816 255.2278 L425.2441 257.9387 L425.2815 263.7695 Z" clip-path="url(#clipPath2)" stroke="none"/>
      <path fill="none" d="M392.9316 277.6094 L426.0983 297.8" clip-path="url(#clipPath2)"/>
      <path d="M432.9316 301.96 L425.2815 291.4492 L425.2441 297.2801 L420.0816 299.9909 Z" clip-path="url(#clipPath2)" stroke="none"/>
      <path fill="none" d="M235.9473 277.6094 L274.4211 79.6319" clip-path="url(#clipPath2)"/>
      <path d="M275.9473 71.7788 L268.7499 82.6046 L274.2304 80.6135 L278.5663 84.5123 Z" clip-path="url(#clipPath2)" stroke="none"/>
      <path fill="none" d="M235.9473 277.6094 L274.5108 488.8947" clip-path="url(#clipPath2)"/>
      <path d="M275.9473 496.7646 L278.7114 484.0619 L274.3313 487.9109 L268.8739 485.8575 Z" clip-path="url(#clipPath2)" stroke="none"/>
      <path fill="none" d="M448.7422 496.7646 L483.6646 454.2456" clip-path="url(#clipPath2)"/>
      <path d="M488.7422 448.0635 L477.262 454.1631 L483.0299 455.0183 L484.9896 460.5101 Z" clip-path="url(#clipPath2)" stroke="none"/>
      <path fill="none" d="M448.7422 496.7646 L485.7031 586.7667" clip-path="url(#clipPath2)"/>
      <path d="M488.7422 594.167 L488.8088 581.1672 L485.3232 585.8417 L479.5584 584.966 Z" clip-path="url(#clipPath2)" stroke="none"/>
      <path fill="none" d="M448.7422 496.7646 L480.7422 496.7646" clip-path="url(#clipPath2)"/>
      <path d="M488.7422 496.7646 L476.7422 491.7646 L479.7422 496.7646 L476.7422 501.7646 Z" clip-path="url(#clipPath2)" stroke="none"/>
      <path fill="none" d="M605.7266 594.167 L640.649 551.6479" clip-path="url(#clipPath2)"/>
      <path d="M645.7266 545.4658 L634.2464 551.5654 L640.0143 552.4207 L641.974 557.9124 Z" clip-path="url(#clipPath2)" stroke="none"/>
      <path fill="none" d="M605.7266 594.167 L640.649 636.6861" clip-path="url(#clipPath2)"/>
      <path d="M645.7266 642.8682 L641.974 630.4216 L640.0143 635.9133 L634.2464 636.7686 Z" clip-path="url(#clipPath2)" stroke="none"/>
      <path fill="none" d="M605.7266 594.167 L637.7266 594.167" clip-path="url(#clipPath2)"/>
      <path d="M645.7266 594.167 L633.7266 589.167 L636.7266 594.167 L633.7266 599.167 Z" clip-path="url(#clipPath2)" stroke="none"/>
      <path fill="none" d="M392.9316 277.6094 L429.0894 343.6442" clip-path="url(#clipPath2)"/>
      <path d="M432.9316 350.6611 L431.554 337.7343 L428.6092 342.767 L422.7828 342.537 Z" clip-path="url(#clipPath2)" stroke="none"/>
      <path fill="none" d="M392.9316 277.6094 L430.4347 391.762" clip-path="url(#clipPath2)"/>
      <path d="M432.9316 399.3623 L433.9364 386.4012 L430.1225 390.8119 L424.436 389.5224 Z" clip-path="url(#clipPath2)" stroke="none"/>
      <path fill="none" d="M394.5605 71.7788 L428.568 41.7023" clip-path="url(#clipPath2)"/>
      <path d="M434.5605 36.4023 L422.2592 40.6068 L427.8189 42.3647 L428.8841 48.0976 Z" clip-path="url(#clipPath2)" stroke="none"/>
      <path fill="none" d="M394.5605 71.7788 L428.568 101.8554" clip-path="url(#clipPath2)"/>
      <path d="M434.5605 107.1553 L428.8841 95.4601 L427.8189 101.1929 L422.2592 102.9508 Z" clip-path="url(#clipPath2)" stroke="none"/>
    </g>
  </g>
</svg>
